<?xml version="1.0" standalone="no"?>
<!DOCTYPE svg PUBLIC "-//W3C//DTD SVG 20010904//EN"
 "http://www.w3.org/TR/2001/REC-SVG-20010904/DTD/svg10.dtd">
<svg version="1.0" xmlns="http://www.w3.org/2000/svg"
 width="3147.000000pt" height="3147.000000pt" viewBox="0 0 3147.000000 3147.000000"
 preserveAspectRatio="xMidYMid meet">

<g transform="translate(0.000000,3147.000000) scale(0.100000,-0.100000)"
fill="#000000" stroke="none">
<path d="M16466 26690 c-126 -12 -368 -45 -516 -71 -63 -12 -128 -23 -145 -26
-182 -29 -447 -101 -569 -155 -49 -22 -114 -46 -144 -53 -30 -8 -57 -17 -60
-20 -10 -9 54 -26 85 -23 60 7 37 -4 -192 -93 -60 -23 -114 -45 -120 -49 -5
-4 -21 -11 -35 -15 -33 -10 -157 -66 -245 -112 -38 -20 -117 -71 -175 -113
-139 -101 -267 -188 -453 -306 -238 -152 -328 -195 -445 -213 l-47 -7 55 -19
55 -20 -40 -3 c-264 -18 -482 -109 -640 -267 -96 -97 -176 -226 -359 -583 -68
-133 -136 -259 -151 -278 -15 -20 -60 -57 -99 -83 l-71 -46 108 -5 109 -5
-164 -102 c-372 -231 -567 -313 -744 -313 -41 0 -54 -4 -54 -15 0 -25 80 -74
157 -98 40 -12 73 -25 73 -28 0 -4 -35 -10 -77 -14 l-78 -7 30 -24 c79 -64
188 -104 287 -104 26 0 49 -4 52 -9 4 -5 -38 -65 -92 -133 -325 -409 -375
-493 -529 -878 l-78 -195 3 -118 3 -118 83 44 83 44 -63 -94 c-35 -52 -70
-118 -78 -147 -10 -35 -23 -220 -41 -611 -14 -308 -32 -695 -40 -860 -23 -482
-21 -599 20 -880 19 -132 35 -245 35 -251 0 -6 -24 -14 -54 -17 -112 -11 -210
-93 -275 -230 -90 -189 -90 -201 35 -1187 103 -820 181 -1329 239 -1555 77
-302 157 -466 254 -523 74 -43 163 -30 233 36 l27 25 5 -24 c3 -13 14 -166 26
-339 33 -490 72 -768 151 -1089 76 -308 155 -528 275 -760 l74 -143 -25 -332
c-94 -1253 -163 -1916 -210 -2006 -61 -118 -482 -430 -1003 -744 l-63 -38 -77
12 -77 12 -530 -292 c-870 -479 -1546 -840 -2162 -1156 -139 -71 -253 -132
-253 -135 0 -10 100 -159 107 -159 19 0 1047 539 1606 841 130 71 241 129 245
129 4 0 65 -116 136 -257 351 -705 759 -1380 1235 -2047 197 -276 323 -429
525 -635 566 -576 1433 -1246 2537 -1958 l216 -140 194 -22 c107 -12 209 -23
227 -26 17 -2 32 -2 32 0 0 1 -114 74 -252 161 -309 194 -894 582 -1158 769
-649 460 -1141 860 -1549 1260 -265 261 -377 390 -593 691 -412 573 -734 1095
-1151 1869 -74 138 -220 436 -215 440 2 1 131 72 288 158 157 85 346 189 420
230 102 57 138 73 146 64 6 -7 44 -109 84 -227 144 -426 264 -715 462 -1110
376 -752 799 -1342 1388 -1930 686 -687 1539 -1294 2913 -2075 l279 -158 56
23 c440 179 1165 512 1552 713 749 388 1250 705 1602 1014 279 244 448 493
601 878 188 474 291 1071 306 1762 l6 292 113 -51 c131 -60 134 -63 176 -218
47 -175 60 -291 60 -580 1 -387 -40 -708 -149 -1165 -45 -191 -75 -276 -155
-440 -297 -613 -996 -1284 -2070 -1987 -96 -63 -221 -143 -278 -178 -57 -34
-101 -65 -98 -67 6 -6 149 24 380 79 l169 40 126 86 c1054 716 1755 1439 2016
2080 70 171 144 474 199 812 80 487 82 978 6 1296 -11 50 -14 74 -6 71 6 -3
196 -89 421 -192 762 -348 1598 -722 2013 -900 l192 -83 60 73 c33 40 60 77
60 82 0 4 -53 30 -118 57 -353 149 -1319 581 -2411 1079 l-703 320 -182 -32
c-99 -18 -193 -35 -207 -38 -25 -4 -28 -1 -43 44 -30 93 -38 181 -43 463 -12
670 80 1646 245 2606 l38 222 78 83 c314 337 511 763 812 1757 82 272 118 418
151 617 l8 49 78 22 c42 12 95 34 118 49 45 32 108 107 146 175 14 25 65 106
113 180 242 374 394 718 431 974 15 109 33 170 145 486 90 252 108 313 124
420 84 562 27 1049 -148 1242 -75 83 -183 128 -307 128 -41 0 -75 2 -75 5 0 3
7 72 15 153 23 212 22 352 -4 527 -20 140 -25 157 -73 253 -36 74 -54 100 -60
90 -6 -9 -7 -6 -3 10 4 13 2 22 -5 22 -6 0 -8 4 -5 10 3 6 48 -11 105 -40 71
-35 100 -46 100 -36 0 20 -29 48 -42 40 -7 -4 -8 -2 -4 5 4 6 0 14 -8 17 -9 3
-44 34 -78 67 -35 34 -108 102 -163 152 -55 49 -129 118 -164 152 -35 35 -67
63 -71 63 -4 0 -27 19 -51 43 -66 65 -180 170 -211 193 -15 12 -29 32 -31 45
-2 13 -7 31 -10 39 -11 27 -27 104 -27 137 l0 31 126 -85 c69 -47 128 -82 131
-79 4 3 -1 52 -9 108 -9 57 -15 104 -14 105 0 0 152 -99 336 -221 l335 -223 7
41 c3 23 7 126 7 229 1 188 1 189 -29 257 -27 61 -74 186 -131 348 l-18 53 47
-39 c26 -22 65 -59 87 -81 21 -23 42 -41 46 -41 4 0 1 24 -7 53 -37 144 -47
251 -48 532 -2 278 -2 280 -30 360 -15 43 -48 110 -74 148 -26 38 -71 105
-100 149 l-53 80 38 -23 c21 -12 61 -37 88 -54 101 -63 102 -63 44 20 -110
156 -218 329 -238 379 -11 28 -71 191 -134 361 -135 365 -202 529 -264 645
-40 74 -129 213 -158 246 -5 7 -57 84 -114 173 -57 89 -105 161 -108 161 -2 0
-1 -17 2 -37 2 -21 7 -78 10 -128 l6 -90 -31 30 c-43 40 -167 191 -210 255
-84 123 -158 215 -253 314 -53 55 -65 64 -53 39 9 -18 16 -37 16 -43 0 -17
-163 73 -210 116 -22 21 -60 72 -85 115 -60 103 -113 165 -317 372 -237 238
-356 343 -565 497 -131 96 -167 118 -291 180 -127 62 -254 117 -542 232 -208
83 -358 151 -370 167 -3 3 -22 18 -42 34 -21 15 -54 39 -73 53 l-35 26 46 -86
c25 -47 42 -86 37 -86 -5 0 -98 29 -207 65 -396 130 -592 165 -820 145z m-256
-802 c-19 -17 -132 -124 -250 -238 -118 -113 -234 -224 -258 -246 -72 -65 -66
-72 26 -27 156 76 345 132 516 153 116 14 456 14 593 0 257 -27 517 -97 696
-186 77 -39 187 -103 187 -109 0 -1 -25 7 -55 17 -65 22 -269 58 -327 58 -21
0 -71 13 -110 30 -164 70 -273 76 -540 30 -526 -90 -1012 -282 -1333 -528 -93
-71 -286 -262 -343 -339 -25 -35 -47 -61 -49 -59 -5 5 102 210 170 326 62 105
161 216 282 316 28 23 61 51 75 63 31 25 19 27 -18 4 -109 -70 -363 -261 -442
-333 -14 -13 -38 -35 -54 -49 l-30 -26 28 35 c16 19 51 59 77 88 27 29 46 58
43 64 -4 7 -2 8 5 4 11 -7 71 47 71 65 0 4 -16 24 -35 43 -19 20 -35 40 -35
46 0 5 -6 10 -12 10 -16 1 74 83 177 162 44 34 82 63 84 65 2 2 2 5 -1 8 -7 7
-55 -25 -120 -78 -25 -20 -50 -37 -57 -37 -6 0 -11 -4 -11 -9 0 -5 -23 -26
-51 -47 l-52 -38 -39 45 c-22 24 -64 69 -94 99 -30 31 -51 60 -47 64 4 5 3 6
-3 3 -15 -9 -40 21 -28 32 12 10 69 33 194 77 58 20 110 40 115 44 6 4 28 13
50 20 141 45 899 345 983 390 54 28 62 24 22 -12z m-1455 -261 c-502 -248
-677 -357 -845 -526 -101 -101 -183 -196 -154 -179 23 15 628 278 631 275 2
-2 -34 -35 -79 -73 -111 -93 -447 -428 -534 -534 -145 -175 -226 -312 -263
-450 -24 -88 -56 -273 -66 -380 -6 -73 -8 -77 -76 -169 -38 -52 -69 -91 -69
-87 0 18 52 352 71 451 11 61 38 162 60 225 52 152 70 212 61 208 -4 -2 -90
-91 -191 -198 -101 -107 -192 -204 -202 -214 -15 -16 -12 -3 12 65 17 46 37
104 46 129 40 118 120 304 188 441 42 83 75 155 73 159 -2 5 -60 -41 -129
-103 -69 -62 -197 -176 -285 -253 -219 -196 -426 -356 -594 -459 -43 -27 -44
-27 -25 -4 11 13 43 49 72 79 28 30 60 64 70 76 10 12 57 63 105 115 110 120
227 256 290 339 70 91 179 320 152 320 -4 0 -49 -32 -101 -70 -51 -39 -93 -66
-93 -61 0 6 51 61 113 124 258 258 517 399 1120 611 253 89 822 261 877 265 8
0 -97 -55 -235 -122z m3640 -768 c73 -22 215 -113 325 -207 230 -199 542 -511
815 -817 44 -49 90 -101 103 -115 57 -61 257 -316 339 -430 163 -228 300 -465
486 -837 124 -248 263 -561 253 -571 -2 -1 -37 15 -77 37 l-74 40 47 -97 c40
-84 208 -533 208 -558 0 -5 -37 45 -81 111 -45 66 -79 112 -76 103 4 -10 20
-102 37 -205 35 -209 49 -258 97 -320 18 -24 31 -43 28 -43 -2 0 -54 34 -114
75 -60 41 -112 75 -116 75 -4 0 -5 -66 -2 -147 4 -141 7 -160 66 -388 129
-505 177 -808 168 -1052 -5 -124 -1 -217 23 -495 16 -189 32 -370 34 -403 l5
-60 -45 4 -46 3 6 -53 c13 -111 36 -451 46 -649 5 -113 17 -259 26 -325 35
-255 18 -517 -47 -705 -61 -176 -77 -255 -104 -520 -43 -418 -75 -615 -140
-865 -92 -355 -194 -560 -423 -857 -63 -83 -141 -207 -228 -363 l-38 -70 -17
88 c-9 48 -19 90 -21 93 -3 2 -10 -15 -17 -38 -35 -117 -127 -258 -226 -344
-181 -157 -220 -204 -249 -303 -9 -30 -16 -77 -16 -105 l0 -51 -23 40 c-13 22
-61 106 -107 187 -45 81 -93 157 -105 168 l-23 22 -48 -146 c-27 -80 -51 -146
-54 -146 -12 0 -132 193 -190 303 -154 294 -209 544 -166 756 22 106 61 232
93 295 28 56 27 75 -12 241 -54 230 -124 386 -273 611 -59 89 -112 165 -119
168 -6 2 -51 8 -99 12 l-88 7 22 -37 c12 -20 22 -39 22 -41 0 -2 -19 5 -43 15
-47 21 -180 59 -297 84 -90 20 -244 91 -319 148 l-54 41 7 -54 6 -54 -21 25
c-12 14 -31 37 -43 52 -17 23 -33 29 -91 37 -39 6 -113 11 -166 11 -118 0
-167 -14 -406 -116 -285 -121 -486 -184 -588 -184 -122 1 -231 51 -399 186
-66 52 -132 102 -146 109 -32 16 -149 32 -305 40 -60 3 -129 8 -152 11 -24 3
-43 1 -43 -4 0 -5 -7 -26 -16 -47 l-15 -38 -32 38 -31 38 -93 -6 c-186 -13
-300 -46 -389 -114 l-37 -28 5 48 c5 45 4 47 -16 41 -74 -24 -459 -173 -479
-187 -27 -17 -153 -189 -185 -253 -94 -186 -101 -583 -16 -909 3 -11 -17 18
-43 65 -79 137 -74 133 -68 65 4 -33 13 -109 21 -168 27 -208 13 -290 -26
-150 -27 95 -28 95 -55 -32 -10 -43 -33 -118 -52 -165 -43 -106 -63 -182 -63
-237 0 -24 -5 -43 -10 -43 -6 0 -47 14 -91 31 -138 53 -315 188 -430 328 l-36
44 -103 -134 c-57 -74 -107 -138 -112 -144 -6 -6 -7 36 -2 109 l7 119 -44 -26
c-93 -54 -221 -72 -302 -43 -21 8 -56 27 -79 42 -154 107 -199 267 -363 1279
-101 627 -147 863 -224 1155 -18 68 -66 608 -133 1510 l-11 145 36 105 c93
270 159 645 187 1055 5 83 10 396 10 698 0 514 -1 547 -17 547 -10 0 -28 3
-40 6 -18 5 -22 1 -26 -23 -2 -15 -5 156 -6 380 -1 442 10 657 40 776 40 157
180 392 329 552 l69 74 -30 -86 c-38 -112 -100 -490 -80 -489 4 0 19 30 36 67
50 113 141 238 273 376 69 73 130 134 134 135 5 2 -14 -40 -41 -95 -86 -168
-94 -196 -98 -378 l-4 -160 59 121 c67 138 112 208 223 349 89 114 155 182
145 150 -12 -42 -106 -457 -106 -468 0 -7 18 29 39 78 163 386 480 751 916
1055 202 141 320 227 565 410 285 214 360 266 467 319 139 69 199 81 448 91
267 10 395 33 654 119 155 51 391 150 534 222 l47 24 -76 29 c-70 27 -75 30
-53 40 14 6 107 10 214 11 208 0 259 -7 480 -71 146 -42 327 -81 415 -89 l65
-6 -47 25 c-49 27 -75 53 -42 42 11 -3 78 -19 149 -35 151 -35 133 -42 196 82
22 42 41 77 43 77 3 0 10 -34 17 -75 6 -41 15 -75 18 -75 4 0 17 21 29 46 32
64 112 146 176 178 36 18 100 36 183 51 162 29 186 30 268 4z m-3445 -122 c0
-2 -12 -14 -27 -28 l-28 -24 24 28 c23 25 31 32 31 24z m5839 -4110 c-2 -1
-13 -9 -24 -17 -19 -14 -19 -14 -6 3 7 9 18 17 24 17 6 0 8 -1 6 -3z m-9598
-1670 c36 -60 96 -232 167 -477 74 -259 69 -230 102 -620 6 -69 22 -278 35
-465 14 -187 28 -362 31 -390 l6 -50 -21 19 c-32 29 -79 132 -96 211 -9 45
-15 130 -15 235 -1 178 -5 185 -40 56 -38 -136 -27 -275 34 -451 37 -108 59
-154 109 -226 l45 -67 21 -278 c12 -154 23 -301 25 -329 4 -44 0 -58 -36 -120
-44 -76 -96 -137 -110 -129 -15 10 -75 137 -102 219 -37 110 -80 286 -105 435
-77 454 -217 1500 -267 1995 -20 197 -13 268 35 363 32 62 62 96 101 110 32
12 55 0 81 -41z m10464 -232 c89 -38 148 -165 181 -385 37 -251 -1 -765 -69
-940 l-26 -65 6 70 c13 166 -54 533 -153 837 l-16 48 -29 -16 c-90 -46 -124
-103 -178 -292 -40 -140 -65 -182 -116 -197 -22 -6 -55 -20 -74 -29 -48 -25
-28 -38 68 -44 80 -5 81 -4 111 28 36 38 71 144 94 285 9 55 20 116 23 135 7
40 33 -112 80 -460 25 -183 28 -235 28 -492 0 -157 3 -284 8 -281 9 6 9 6 -8
-52 -9 -27 -25 -102 -36 -165 -48 -272 -192 -597 -410 -923 -44 -66 -91 -142
-106 -170 -42 -85 -78 -123 -124 -135 l-42 -11 7 177 c13 350 40 631 77 802
l10 47 107 -54 c59 -29 123 -55 143 -59 33 -5 42 -1 78 31 79 72 141 199 166
344 17 96 20 211 5 211 -5 0 -10 -13 -10 -28 0 -16 -7 -53 -16 -83 -51 -170
-184 -318 -287 -319 -42 0 -109 19 -135 38 l-22 17 30 130 c52 228 64 333 64
540 0 139 -6 233 -22 350 -25 183 -31 143 65 450 131 420 200 580 270 629 77
53 178 66 258 31z m-5464 -3194 l42 -49 81 39 c57 28 93 39 126 39 104 0 702
-122 1008 -206 260 -71 354 -113 440 -194 101 -95 182 -139 334 -182 l47 -13
-31 -48 c-17 -26 -35 -47 -40 -47 -5 0 -7 -4 -4 -8 2 -4 -9 -23 -25 -41 -16
-19 -29 -38 -29 -43 0 -6 -7 -8 -14 -5 -9 4 -13 1 -11 -6 3 -7 -13 -34 -35
-62 -36 -45 -38 -51 -23 -60 64 -36 133 -145 197 -311 l35 -89 3 75 3 75 38
-79 c43 -86 122 -316 163 -471 89 -340 -16 -747 -233 -899 -53 -37 -108 -102
-178 -211 -21 -33 -40 -62 -42 -64 -1 -2 -23 13 -48 33 l-45 37 0 -69 0 -69
-70 -17 c-85 -21 -224 -75 -285 -111 -63 -36 -153 -127 -207 -208 l-45 -68
-24 55 c-13 31 -27 56 -30 56 -4 0 -21 -36 -39 -80 -18 -44 -35 -80 -37 -80
-3 0 -64 35 -135 78 -154 91 -216 152 -249 243 -12 33 -23 58 -24 57 -2 -2
-20 -32 -41 -67 -43 -75 -43 -74 -64 57 -13 77 -21 95 -35 73 -13 -22 -111
-66 -259 -117 -162 -56 -309 -120 -383 -167 l-41 -26 -17 64 -18 64 -49 -72
c-73 -105 -78 -110 -113 -103 -81 16 -275 191 -321 291 -35 74 -30 171 10 197
6 4 8 10 4 13 -10 10 -43 -11 -112 -70 -75 -63 -103 -78 -183 -99 -59 -16
-245 -22 -276 -10 -12 4 2 30 58 107 41 56 73 102 72 103 -1 1 -25 -2 -54 -7
-163 -30 -400 103 -573 322 -50 63 -120 200 -146 284 -10 33 -19 62 -21 64 -1
2 -29 -16 -60 -41 -85 -66 -81 -66 -81 10 -1 111 -37 230 -106 355 -19 34 -42
89 -52 122 -25 83 -23 249 4 380 63 298 75 350 93 393 24 56 69 128 123 198
36 48 41 51 67 42 15 -5 46 -8 68 -6 l42 3 -55 55 c-30 30 -52 59 -49 64 4 5
1 6 -4 3 -11 -7 -93 75 -93 92 0 5 8 15 17 22 11 10 14 10 9 2 -4 -7 -3 -13 2
-13 5 0 26 -17 48 -38 178 -174 326 -271 529 -349 49 -19 92 -38 95 -42 3 -3
10 -6 15 -7 32 -1 85 -18 85 -26 0 -5 4 -7 8 -4 4 2 37 -2 72 -9 85 -19 244
-20 236 -2 -3 6 -9 19 -12 28 -4 11 -21 18 -50 22 -25 2 -53 12 -62 20 -12 11
-29 14 -59 10 -36 -5 -45 -2 -66 21 -35 38 -47 97 -47 236 0 91 3 122 13 126
21 8 16 32 -5 26 -10 -2 -18 0 -18 5 0 5 -8 9 -17 10 -10 0 -50 8 -90 16 -39
9 -121 22 -182 29 -97 11 -121 10 -206 -6 -53 -10 -99 -16 -102 -12 -3 3 -11
2 -17 -3 -6 -5 -45 -12 -86 -16 l-75 -7 45 36 c25 19 61 44 80 53 19 10 40 23
47 30 7 6 18 13 25 16 9 3 8 9 -6 19 -18 14 -15 17 42 52 142 86 306 145 487
176 158 26 675 53 1112 58 l142 2 42 -49z m-3566 -2636 c242 -199 520 -391
1030 -710 636 -398 772 -493 919 -644 201 -207 413 -269 983 -290 l228 -9 28
-33 c15 -19 44 -66 63 -106 19 -39 41 -74 50 -77 47 -18 510 -3 739 25 146 17
612 97 728 124 34 8 69 15 77 15 9 0 30 -25 48 -55 18 -30 38 -55 44 -55 21 0
124 85 248 205 128 124 221 194 440 330 161 101 450 275 456 275 2 0 4 -17 4
-37 0 -62 10 -83 36 -83 27 0 83 72 140 183 36 70 43 77 228 220 105 81 250
196 321 256 72 60 131 108 132 107 2 -1 -6 -54 -17 -117 -60 -345 -134 -926
-169 -1319 -57 -638 -72 -1071 -50 -1400 l11 -165 -35 -71 c-20 -40 -50 -127
-67 -195 -77 -305 -201 -693 -341 -1066 -270 -722 -561 -1296 -861 -1702 -81
-110 -416 -452 -803 -821 -413 -393 -541 -506 -615 -541 -78 -38 -518 -231
-645 -283 l-91 -37 -245 140 -246 141 -139 207 c-154 231 -497 722 -739 1058
-436 607 -1032 1551 -1765 2795 -392 667 -900 1552 -900 1570 0 5 7 13 15 18
29 15 177 166 207 210 34 50 43 75 63 192 42 244 111 943 170 1720 8 113 18
224 21 248 l5 43 97 -92 c53 -51 142 -129 197 -174z m-731 -2648 c752 -1327
1537 -2630 2066 -3427 180 -270 238 -354 665 -955 242 -341 345 -488 360 -514
6 -10 4 -12 -6 -6 -8 5 -108 68 -224 140 -1178 736 -1987 1437 -2595 2246
-391 522 -703 1082 -968 1739 -75 188 -232 622 -232 644 0 7 57 48 128 91 150
92 466 302 537 356 28 21 55 39 60 38 6 0 100 -158 209 -352z m7673 -1059 c24
-8 75 -12 136 -11 l99 2 -7 -197 c-19 -611 -91 -1079 -230 -1497 -135 -407
-276 -654 -505 -885 -304 -306 -837 -660 -1550 -1028 l-205 -106 230 224 c127
124 272 265 324 315 307 295 524 606 785 1125 241 478 442 972 624 1530 51
157 146 490 166 582 l6 28 45 -34 c24 -19 61 -40 82 -48z"/>
<path d="M15105 25209 c-10 -15 3 -25 16 -12 7 7 7 13 1 17 -6 3 -14 1 -17 -5z"/>
<path d="M15200 25060 c0 -5 5 -10 10 -10 6 0 10 5 10 10 0 6 -4 10 -10 10 -5
0 -10 -4 -10 -10z"/>
<path d="M17840 20506 c0 -2 29 -23 65 -46 62 -40 82 -59 51 -47 -39 15 -176
38 -232 39 -98 2 -158 -37 -222 -142 l-27 -45 -5 55 c-7 82 -22 34 -21 -67 1
-61 -2 -83 -11 -83 -9 0 -9 -3 2 -11 12 -9 12 -10 -3 -5 -58 19 -61 18 -90
-26 -22 -33 -28 -52 -25 -85 l3 -42 -22 27 c-12 15 -25 35 -28 45 -4 9 -10 17
-16 17 -11 0 27 -104 56 -150 35 -55 89 -98 147 -115 69 -20 66 -20 112 23 36
34 38 34 22 8 l-18 -29 93 5 c78 5 106 11 164 38 39 17 95 43 125 56 l55 25
-49 -49 -48 -50 88 -6 c49 -3 170 -9 269 -13 162 -6 174 -8 118 -16 -35 -5
-63 -12 -63 -16 0 -5 29 -11 65 -15 107 -11 423 -65 540 -92 190 -45 245 -64
425 -149 96 -46 229 -102 295 -125 111 -38 458 -140 479 -140 5 0 -17 27 -49
60 -78 79 -109 129 -225 365 l-99 200 -1 -70 0 -70 -37 64 c-45 75 -202 285
-267 356 l-46 50 45 -129 45 -129 -32 29 c-18 16 -42 38 -53 49 -57 58 -168
116 -303 160 -114 37 -198 53 -370 70 -258 26 -510 87 -829 198 -40 14 -73 24
-73 23z"/>
<path d="M14957 20469 c-21 -5 -116 -20 -210 -33 -260 -37 -422 -45 -702 -32
-299 14 -517 -27 -660 -124 -22 -15 -51 -33 -63 -39 -25 -13 -18 2 75 167 14
24 23 45 21 48 -9 8 -231 -197 -345 -320 l-66 -71 7 49 c4 27 10 55 13 62 3 8
1 14 -3 14 -5 -1 -50 -62 -101 -138 -51 -75 -124 -176 -162 -225 -38 -48 -74
-102 -81 -121 -23 -71 -33 -446 -11 -446 3 0 56 43 116 96 143 124 371 296
475 358 101 60 187 91 310 111 148 24 416 38 643 33 114 -2 207 -1 207 3 0 3
-20 12 -45 19 -25 7 -44 14 -42 17 4 3 370 -39 460 -53 21 -3 37 -2 37 4 0 5
-17 31 -37 57 -20 27 -30 45 -22 40 8 -5 60 -39 115 -76 85 -57 113 -70 177
-83 96 -20 101 -20 93 2 -3 9 6 2 21 -16 24 -27 35 -32 72 -32 103 0 182 55
249 171 44 77 40 83 -13 24 -38 -42 -43 -46 -35 -22 15 44 12 74 -15 132 -32
71 -55 162 -55 219 0 63 -14 58 -30 -11 l-12 -57 -13 38 c-21 62 -62 113 -112
143 -47 27 -52 28 -194 28 l-146 0 76 37 c76 36 78 44 8 27z"/>
<path d="M14470 19574 c-47 -7 -150 -27 -229 -43 -83 -18 -174 -31 -215 -31
-40 0 -100 -8 -138 -19 -174 -50 -505 -204 -619 -288 -30 -22 -78 -62 -106
-89 -54 -53 -136 -154 -129 -161 2 -2 77 21 167 51 179 60 337 96 421 96 29 0
125 -14 213 -30 249 -47 380 -59 682 -58 269 0 272 0 350 -27 66 -23 90 -27
158 -23 44 2 93 11 109 20 l29 15 -74 49 c-41 26 -85 54 -99 62 -14 7 -32 19
-40 26 -19 16 -288 183 -355 221 -27 16 -52 31 -55 35 -7 10 -86 49 -134 67
-23 8 -75 20 -116 27 l-75 12 58 18 c249 74 362 67 536 -31 36 -21 84 -46 106
-56 49 -23 155 -48 155 -37 0 10 -151 110 -216 143 -133 67 -214 78 -384 51z
m-142 -236 c30 -30 0 -75 -42 -64 -27 7 -38 35 -24 60 11 19 49 21 66 4z
m-568 -116 c0 -7 -4 -10 -10 -7 -5 3 -10 16 -10 28 0 18 2 19 10 7 5 -8 10
-21 10 -28z m856 -38 c24 -20 44 -40 44 -45 0 -28 -147 -106 -165 -87 -4 3 0
19 8 35 8 15 20 48 27 73 10 38 24 59 38 60 2 0 24 -16 48 -36z m-566 -64 c18
-18 18 -50 1 -50 -15 0 -53 49 -46 59 9 16 23 13 45 -9z m261 -28 c-18 -35
-98 -65 -159 -60 -55 5 -87 24 -74 45 5 9 19 9 47 3 35 -8 42 -7 58 11 14 17
20 19 32 9 12 -10 21 -7 47 14 28 21 35 23 46 12 11 -10 11 -19 3 -34z"/>
<path d="M17804 19522 c-72 -38 -240 -156 -304 -212 l-35 -31 35 7 c53 10 253
107 336 164 40 27 81 50 89 50 9 0 85 -16 168 -36 l152 -37 -110 -27 c-208
-52 -424 -156 -575 -279 -97 -79 -190 -184 -173 -194 20 -13 138 -27 166 -21
18 3 64 22 102 42 70 36 70 36 195 34 69 -1 190 -9 270 -18 91 -11 238 -17
395 -18 231 -1 257 1 345 23 138 34 259 20 394 -45 27 -13 51 -22 53 -21 1 2
-35 48 -80 103 -88 104 -166 179 -231 223 -52 34 -28 39 55 11 104 -35 229
-119 397 -268 40 -36 75 -63 77 -60 7 7 -106 141 -160 189 -53 46 -195 150
-255 186 -50 30 -172 63 -505 137 -429 95 -636 136 -686 136 -31 0 -64 -11
-115 -38z m776 -226 c6 -8 10 -25 8 -38 -2 -18 -10 -24 -35 -26 -28 -3 -33 1
-39 23 -11 45 37 75 66 41z m-556 -171 c23 -43 20 -55 -14 -55 -56 0 -110 41
-110 83 0 7 21 25 48 40 l47 26 6 -32 c3 -18 14 -45 23 -62z m816 9 c0 -29
-46 -84 -70 -84 -18 0 -18 2 -4 35 7 19 14 43 14 54 0 11 8 27 17 36 16 16 17
16 30 -1 7 -10 13 -28 13 -40z m-276 -82 c-17 -28 -94 -62 -141 -62 -47 0 -93
17 -93 35 0 20 10 23 52 12 35 -9 42 -8 50 7 7 12 17 16 33 12 17 -4 32 1 52
18 25 22 30 23 43 10 11 -11 12 -19 4 -32z m-263 28 c21 -12 25 -35 7 -46 -6
-4 -19 3 -30 16 -30 37 -19 52 23 30z"/>
<path d="M15204 17462 c-121 -42 -293 -181 -348 -281 -87 -160 -108 -418 -45
-543 40 -80 113 -160 184 -202 37 -22 59 -24 320 -38 154 -8 307 -15 340 -14
58 1 63 -1 153 -63 52 -36 115 -83 140 -105 111 -97 94 -65 -28 52 -145 141
-297 235 -418 261 -81 17 -264 13 -372 -8 -52 -10 -99 -17 -105 -14 -16 7 -88
102 -127 168 -36 61 -62 130 -73 196 -26 149 189 477 368 562 32 15 62 27 67
27 5 0 12 5 15 10 9 14 -13 12 -71 -8z"/>
<path d="M17310 17456 c0 -2 28 -27 63 -56 187 -158 253 -308 274 -627 3 -51
9 -93 14 -93 12 0 22 167 15 259 -16 206 -86 335 -244 450 -51 38 -122 76
-122 67z"/>
<path d="M17599 16561 c-76 -122 -140 -141 -323 -97 -59 14 -126 26 -148 26
-95 0 -342 -106 -593 -255 -60 -36 -132 -74 -160 -85 -50 -19 -50 -19 -15 -19
48 -1 124 32 282 121 73 42 176 93 228 114 106 42 96 42 385 29 207 -8 223 -5
291 67 42 44 113 158 97 158 -4 -1 -24 -27 -44 -59z"/>
<path d="M11081 18133 c-22 -43 57 -687 105 -840 8 -27 21 -124 29 -218 24
-266 42 -347 64 -285 20 58 12 141 -34 371 -112 555 -140 829 -92 903 9 14 29
26 44 28 27 4 26 5 -17 25 -75 34 -88 36 -99 16z"/>
<path d="M21306 17325 c55 -92 97 -155 101 -151 8 8 -49 105 -85 144 -31 33
-32 34 -16 7z"/>
<path d="M15287 15129 c7 -7 15 -10 18 -7 3 3 -2 9 -12 12 -14 6 -15 5 -6 -5z"/>
<path d="M17766 15001 c2 -2 -13 -15 -34 -28 l-37 -23 37 6 c20 3 53 1 72 -6
33 -10 36 -15 36 -48 0 -20 -11 -83 -25 -140 -14 -57 -25 -105 -25 -107 0 -1
11 -2 24 -1 13 0 22 4 20 7 -6 10 26 20 38 12 6 -3 9 -2 5 3 -7 12 113 90 133
86 11 -2 12 -1 2 6 -9 6 10 26 64 68 42 32 80 58 86 56 5 -1 7 2 4 7 -4 5 4
17 16 25 12 9 20 17 17 20 -2 2 -34 6 -71 9 -37 3 -110 17 -162 32 -61 16
-115 24 -150 23 -30 -2 -52 -5 -50 -7z"/>
<path d="M17656 14625 c-4 -15 -5 -29 -2 -32 2 -2 24 4 48 15 42 20 43 20 13
21 -17 1 -36 6 -42 12 -7 7 -12 3 -17 -16z"/>
<path d="M16582 14236 c7 -8 15 -12 17 -11 5 6 -10 25 -20 25 -5 0 -4 -6 3
-14z"/>
<path d="M17150 13825 c-42 -24 -179 -63 -279 -79 -154 -25 -322 -29 -821 -17
-479 11 -517 14 -699 56 -23 6 -23 5 -19 -48 4 -47 17 -73 109 -220 57 -92
126 -191 154 -220 59 -63 193 -172 201 -164 3 3 -3 26 -15 51 l-20 46 37 -30
c54 -43 104 -60 199 -70 122 -13 178 -34 234 -90 l47 -47 15 51 15 51 1 -64
c1 -75 -9 -76 142 11 115 65 191 125 243 194 l33 44 7 -80 c4 -44 11 -80 15
-80 4 0 39 37 77 82 38 45 94 111 126 145 81 90 159 252 233 481 6 16 -4 15
-35 -3z"/>
<path d="M20740 20840 c0 -5 5 -10 11 -10 5 0 7 5 4 10 -3 6 -8 10 -11 10 -2
0 -4 -4 -4 -10z"/>
<path d="M20800 20800 c0 -5 5 -10 10 -10 6 0 10 5 10 10 0 6 -4 10 -10 10 -5
0 -10 -4 -10 -10z"/>
<path d="M20760 20780 c0 -5 5 -10 10 -10 6 0 10 5 10 10 0 6 -4 10 -10 10 -5
0 -10 -4 -10 -10z"/>
<path d="M20780 20740 c0 -5 5 -10 10 -10 6 0 10 5 10 10 0 6 -4 10 -10 10 -5
0 -10 -4 -10 -10z"/>
<path d="M21525 20191 c-3 -5 -2 -12 3 -15 5 -3 9 1 9 9 0 17 -3 19 -12 6z"/>
<path d="M21541 20094 c0 -11 3 -14 6 -6 3 7 2 16 -1 19 -3 4 -6 -2 -5 -13z"/>
</g>
</svg>
